<?xml version="1.0" encoding="utf-8"?>
<!-- Generator: Adobe Illustrator 23.0.2, SVG Export Plug-In . SVG Version: 6.00 Build 0)  -->
<svg version="1.1" id="Layer_1" xmlns="http://www.w3.org/2000/svg" xmlns:xlink="http://www.w3.org/1999/xlink" x="0px" y="0px"
	 viewBox="0 0 1200 84" style="enable-background:new 0 0 1200 84;" xml:space="preserve">
<style type="text/css">
	.st0{fill:#3A6FA2;}
</style>
<g>
	<path class="st0" d="M13.1171875,57.4951172c-6.8779297-6.1689453-8.5800781-14.2529297-8.5800781-20.9892578
		c0-4.7509766,1.6308594-13.046875,7.9423828-19.3574219c4.2539062-4.2548828,10.7070312-7.5878906,21.6259766-7.5878906
		c2.8369141,0,6.8076172,0.2128906,10.2822266,0.8515625c2.6943359,0.4960938,4.9628906,0.921875,7.2324219,1.0634766
		c0.7802734,0.0703125,0.921875,0.3544922,0.921875,0.7802734c0,0.5664062-0.2128906,1.4179688-0.3544922,3.9707031
		c-0.1416016,2.3398438-0.1416016,6.2392578-0.2128906,7.3027344c-0.0712891,1.0644531-0.2128906,1.4892578-0.6386719,1.4892578
		c-0.4960938,0-0.5664062-0.4960938-0.5664062-1.4892578c0-2.7646484-1.1347656-5.671875-2.9785156-7.2324219
		c-2.4814453-2.1269531-7.9414062-4.0410156-14.1816406-4.0410156c-9.4306641,0-13.8271484,2.7646484-16.3085938,5.1757812
		c-5.1767578,4.9638672-6.3818359,11.2744141-6.3818359,18.5068359c0,13.5439453,10.4238281,25.9521484,25.5976562,25.9521484
		c5.3183594,0,9.5019531-0.6376953,12.3378906-3.5449219c1.4892578-1.5605469,2.4111328-4.6796875,2.6240234-5.9560547
		c0.1416016-0.7802734,0.2832031-1.0634766,0.7089844-1.0634766c0.3544922,0,0.4960938,0.4960938,0.4960938,1.0634766
		c0,0.4960938-0.8505859,6.6650391-1.5595703,9.0761719c-0.4257812,1.3466797-0.5673828,1.4882812-1.84375,2.0556641
		c-2.8369141,1.1347656-8.2255859,1.6308594-12.7636719,1.6308594C25.8808594,65.1523438,18.71875,62.5292969,13.1171875,57.4951172
		z"/>
	<path class="st0" d="M84.9482422,17.7148438c14.0400391,0,24.6767578,8.5800781,24.6767578,22.6201172
		c0,13.4726562-9.9980469,24.6054688-25.03125,24.6054688c-17.0878906,0-24.3916016-12.8349609-24.3916016-23.6835938
		C60.2021484,31.5419922,67.7177734,17.7148438,84.9482422,17.7148438z M86.3671875,62.4580078
		c5.6015625,0,16.8759766-2.9775391,16.8759766-20.421875c0-14.4648438-8.7929688-22.0517578-18.6494141-22.0517578
		c-10.4228516,0-17.9394531,6.5234375-17.9394531,19.6416016C66.6542969,53.6660156,75.0927734,62.4580078,86.3671875,62.4580078z"
		/>
	<path class="st0" d="M128.3466797,46.7880859c0,8.8632812,0.1416016,12.4794922,1.2763672,13.5429688
		c0.9921875,0.9921875,3.4033203,1.4179688,8.2958984,1.4179688c3.2617188,0,6.0273438-0.0712891,7.5166016-1.84375
		c0.7802734-0.921875,1.2763672-2.1982422,1.4892578-3.4033203c0.0703125-0.4257812,0.2832031-0.7802734,0.6376953-0.7802734
		c0.2841797,0,0.4257812,0.2841797,0.4257812,0.921875c0,0.6386719-0.4257812,4.2548828-0.921875,6.0273438
		c-0.4257812,1.4179688-0.6386719,1.6308594-3.9707031,1.6308594c-4.4677734,0-7.9423828-0.0712891-10.8496094-0.2128906
		c-2.8359375-0.0703125-4.9628906-0.1416016-6.8066406-0.1416016c-0.2832031,0-1.3476562,0-2.5527344,0.0712891
		c-1.2763672,0.0703125-2.6240234,0.1416016-3.6162109,0.1416016c-0.6386719,0-0.9931641-0.1416016-0.9931641-0.4960938
		c0-0.2128906,0.1425781-0.4970703,0.4970703-0.4970703c0.5673828,0,1.3466797-0.1416016,1.9140625-0.2832031
		c1.2060547-0.2841797,1.3476562-1.4179688,1.6308594-3.1914062c0.3544922-2.4814453,0.3544922-7.2324219,0.3544922-13.046875
		V36.0097656c0-9.3603516,0-11.0615234-0.1416016-12.9765625c-0.1416016-2.0566406-0.4960938-3.0488281-2.5527344-3.3320312
		c-0.4960938-0.0712891-1.5595703-0.1425781-2.1269531-0.1425781c-0.2128906,0-0.4960938-0.2832031-0.4960938-0.4960938
		c0-0.3544922,0.2832031-0.4960938,0.9921875-0.4960938c2.8359375,0,6.7363281,0.1416016,7.0908203,0.1416016
		c0.2832031,0,4.9638672-0.1416016,6.8779297-0.1416016c0.6386719,0,0.9931641,0.1416016,0.9931641,0.4960938
		c0,0.2128906-0.2841797,0.4257812-0.4970703,0.4257812c-0.4248047,0-1.3466797,0.0703125-2.0556641,0.1416016
		c-1.84375,0.3544922-2.1982422,1.2763672-2.3398438,3.4033203c-0.0712891,1.9150391-0.0712891,3.6162109-0.0712891,12.9765625
		V46.7880859z"/>
	<path class="st0" d="M157.0654297,36.0097656c0-9.3603516,0-11.0615234-0.1416016-12.9765625
		c-0.1425781-1.9140625-0.4970703-3.0488281-2.5527344-3.3320312c-0.4970703-0.0712891-1.5605469-0.1425781-2.1279297-0.1425781
		c-0.2119141,0-0.4960938-0.2832031-0.4960938-0.4960938c0-0.3544922,0.2841797-0.4960938,0.9931641-0.4960938
		c2.8359375,0,6.59375,0.1416016,7.1611328,0.1416016s4.4677734-0.1416016,6.3105469-0.1416016
		c0.7089844,0,1.0644531,0.1416016,1.0644531,0.4960938c0,0.2128906-0.2841797,0.4960938-0.5673828,0.4960938
		c-0.4257812,0-0.7802734,0-1.5605469,0.1425781c-1.6308594,0.2832031-1.9853516,1.3466797-2.1269531,3.3320312
		c-0.1416016,1.9150391-0.1416016,3.6162109-0.1416016,12.9765625v8.4375c0,8.7216797,1.9140625,12.3378906,4.6083984,14.7490234
		c3.0498047,2.765625,5.7441406,3.2617188,9.2890625,3.2617188c3.8291016,0,7.5166016-1.7011719,9.6435547-4.2539062
		c2.9072266-3.4746094,3.5458984-8.4384766,3.5458984-14.6074219v-7.5869141c0-9.3603516-0.0712891-11.0615234-0.1425781-12.9765625
		c-0.0703125-1.9140625-0.4248047-3.0488281-2.4814453-3.3320312c-0.4960938-0.0712891-1.5595703-0.1425781-2.1269531-0.1425781
		c-0.2841797,0-0.4970703-0.2832031-0.4970703-0.4960938c0-0.3544922,0.2841797-0.4960938,0.9931641-0.4960938
		c2.765625,0,6.3818359,0.1416016,6.7363281,0.1416016c0.4257812,0,3.4033203-0.1416016,5.2470703-0.1416016
		c0.7089844,0,0.9921875,0.1416016,0.9921875,0.4960938c0,0.2128906-0.2119141,0.4960938-0.4960938,0.4960938
		c-0.4248047,0-0.7792969,0-1.5595703,0.1425781c-1.7021484,0.3544922-2.0566406,1.3466797-2.1982422,3.3320312
		c-0.1416016,1.9150391-0.0712891,3.6162109-0.0712891,12.9765625v6.4521484c0,6.5234375-0.8505859,13.8271484-5.8144531,18.0820312
		c-4.5380859,3.8994141-9.359375,4.3964844-13.046875,4.3964844c-2.0556641,0-8.5800781-0.1425781-12.9755859-4.2548828
		c-3.0488281-2.8359375-5.4599609-7.0195312-5.4599609-15.8125V36.0097656z"/>
	<path class="st0" d="M257.8261719,56.4306641c0.2128906,2.1279297,0.6386719,5.3896484,3.1914062,6.2402344
		c1.7724609,0.5673828,3.4033203,0.5673828,4.0410156,0.5673828c0.2841797,0,0.4970703,0.1416016,0.4970703,0.4257812
		c0,0.3544922-0.5673828,0.5664062-1.2763672,0.5664062c-1.4179688,0-8.3671875-0.0703125-10.6367188-0.2832031
		c-1.4882812-0.1416016-1.7724609-0.3544922-1.7724609-0.6376953c0-0.2128906,0.1416016-0.4257812,0.4257812-0.4970703
		c0.3544922-0.0703125,0.4248047-0.9921875,0.2832031-2.1269531l-2.9775391-30.6328125h-0.1425781l-15.0322266,30.7744141
		c-1.2763672,2.6240234-1.6308594,3.1914062-2.1982422,3.1914062s-0.921875-0.5673828-2.1269531-2.765625
		c-1.6308594-2.9785156-5.7431641-10.7070312-7.3037109-13.96875c-1.84375-3.8291016-6.8779297-13.96875-7.9414062-16.4511719
		h-0.2832031l-2.4111328,27.2285156c-0.0712891,0.921875-0.0712891,2.0566406-0.0712891,3.0498047
		c0,0.921875,0.5673828,1.4882812,1.4892578,1.7011719c1.0634766,0.2841797,1.9853516,0.3544922,2.4111328,0.3544922
		c0.2128906,0,0.4960938,0.2128906,0.4960938,0.4257812c0,0.4257812-0.4257812,0.5673828-1.1347656,0.5673828
		c-2.3398438,0-5.3173828-0.2128906-5.8144531-0.2128906c-0.5673828,0-3.5449219,0.2128906-5.2470703,0.2128906
		c-0.6376953,0-1.0634766-0.1416016-1.0634766-0.5673828c0-0.2128906,0.2841797-0.4257812,0.6386719-0.4257812
		c0.4960938,0,0.9208984-0.0703125,1.8427734-0.2128906c2.0566406-0.3544922,2.1279297-2.5517578,2.4111328-4.8212891
		l4.5380859-39.3535156c0.0712891-0.6386719,0.3544922-1.0644531,0.7089844-1.0644531
		c0.4257812,0,0.921875,0.2128906,1.2763672,0.921875l18.8613281,37.4394531l18.1523438-37.3681641
		c0.2841797-0.5673828,0.5673828-0.9931641,0.9931641-0.9931641c0.4248047,0,0.7802734,0.4970703,0.921875,1.6308594
		L257.8261719,56.4306641z"/>
	<path class="st0" d="M276.6181641,36.0097656c0-9.3603516,0-11.0615234-0.1416016-12.9765625
		c-0.1416016-2.0566406-0.4960938-3.1904297-2.5527344-3.4746094c-0.4960938-0.0703125-1.5595703-0.1416016-2.1269531-0.1416016
		c-0.2128906,0-0.4960938-0.1416016-0.4960938-0.3544922c0-0.3544922,0.2832031-0.4960938,0.9921875-0.4960938
		c2.8359375,0,6.8779297,0.1416016,7.2324219,0.1416016c1.4892578,0,4.3964844-0.1416016,7.3037109-0.1416016
		c10.4238281,0,13.1181641,6.0273438,13.1181641,9.2177734c0,4.7509766-3.1201172,7.7285156-6.3115234,10.5654297
		c4.7509766,1.4179688,10.9912109,5.7431641,10.9912109,12.5507812c0,6.7363281-5.0341797,13.4013672-15.6708984,13.4013672
		c-1.1347656,0-3.4033203-0.0712891-5.3886719-0.2128906c-1.9853516-0.0703125-3.7578125-0.1416016-4.0419922-0.1416016
		c-0.1416016,0-1.2763672,0.0712891-2.5527344,0.0712891c-1.2763672,0.0703125-2.765625,0.1416016-3.7578125,0.1416016
		c-0.6386719,0-0.9931641-0.1416016-0.9931641-0.4960938c0-0.2128906,0.1425781-0.3544922,0.4970703-0.3544922
		c0.5673828,0,1.3466797-0.2128906,1.9140625-0.2841797c1.2060547-0.2128906,1.3476562-1.5595703,1.6308594-3.3330078
		c0.3544922-2.4814453,0.3544922-7.2324219,0.3544922-13.046875V36.0097656z M282.0078125,37.2861328
		c0,0.4248047,0.1416016,0.5673828,0.4248047,0.6376953c0.3544922,0.0712891,1.4892578,0.2841797,3.8291016,0.2841797
		c3.4746094,0,4.8222656-0.1425781,6.0976562-1.5605469c1.3476562-1.4892578,2.4111328-3.5449219,2.4111328-6.4521484
		c0-4.609375-2.5527344-9.7148438-8.7919922-9.7148438c-0.7089844,0-2.1982422,0.0712891-3.1914062,0.2841797
		c-0.5673828,0.1416016-0.7792969,0.2832031-0.7792969,0.6376953V37.2861328z M282.0078125,43.9511719
		c0,4.6796875,0,11.9130859,0.0703125,12.8339844c0.2128906,2.9072266,0.2128906,3.6171875,2.1269531,4.5380859
		c1.7021484,0.7802734,4.3261719,0.8515625,5.4599609,0.8515625c4.1132812,0,9.1474609-1.5605469,9.1474609-9.2890625
		c0-2.6943359-1.0634766-7.8710938-5.9560547-10.9912109c-2.1279297-1.3466797-4.1132812-1.2763672-5.6015625-1.5595703
		c-0.7802734-0.1416016-3.9003906-0.1416016-4.8925781-0.1416016c-0.2128906,0-0.3544922,0.1416016-0.3544922,0.4248047V43.9511719z
		"/>
	<path class="st0" d="M323.7021484,46.6455078c0,5.8144531,0,10.5654297,0.2841797,13.046875
		c0.2128906,1.7734375,0.4257812,2.9072266,2.2685547,3.1914062c0.921875,0.1416016,2.2695312,0.2832031,2.8369141,0.2832031
		c0.3544922,0,0.4960938,0.2841797,0.4960938,0.4970703c0,0.2832031-0.2832031,0.4960938-0.9921875,0.4960938
		c-3.4746094,0-7.5166016-0.2128906-7.8007812-0.2128906c-0.3544922,0-4.2539062,0.2128906-6.1689453,0.2128906
		c-0.6376953,0-0.9921875-0.1416016-0.9921875-0.4960938c0-0.2128906,0.1416016-0.4970703,0.4960938-0.4970703
		c0.5673828,0,1.3476562-0.1416016,1.9150391-0.2832031c1.2050781-0.2841797,1.4179688-1.4179688,1.6308594-3.1914062
		c0.2832031-2.4814453,0.3544922-7.2324219,0.3544922-13.046875V36.0097656c0-9.3603516,0-11.0615234-0.1425781-12.9765625
		c-0.1416016-2.0566406-0.6376953-2.9775391-1.9853516-3.2617188c-0.7089844-0.1416016-1.4882812-0.2128906-1.9140625-0.2128906
		c-0.2832031,0-0.4960938-0.2832031-0.4960938-0.4960938c0-0.3544922,0.2832031-0.4960938,0.9921875-0.4960938
		c2.0566406,0,5.9560547,0.1416016,6.3105469,0.1416016c0.2841797,0,4.3261719-0.1416016,6.2402344-0.1416016
		c0.7089844,0,0.9931641,0.1416016,0.9931641,0.4960938c0,0.2128906-0.2841797,0.4960938-0.4970703,0.4960938
		c-0.4248047,0-0.8505859,0-1.5595703,0.1425781c-1.7021484,0.3544922-2.0566406,1.2050781-2.1982422,3.3320312
		c-0.0712891,1.9150391-0.0712891,3.6162109-0.0712891,12.9765625V46.6455078z"/>
	<path class="st0" d="M355.1152344,19.7714844c0.7802734-1.9853516,1.0634766-2.3398438,1.4892578-2.3398438
		c0.6376953,0,0.8505859,0.8505859,1.4882812,2.1982422c1.1347656,2.5527344,11.1328125,27.4414062,14.9619141,36.5888672
		c2.2695312,5.3886719,3.9707031,6.1689453,5.3183594,6.59375c0.921875,0.2841797,1.84375,0.3544922,2.4814453,0.3544922
		c0.3544922,0,0.7802734,0.1425781,0.7802734,0.4970703s-0.7089844,0.4960938-1.4179688,0.4960938
		c-0.921875,0-5.53125,0-9.8564453-0.1416016c-1.2050781-0.0712891-2.1982422-0.0712891-2.1982422-0.4257812
		c0-0.2832031,0.1416016-0.2832031,0.4257812-0.4257812c0.3544922-0.1416016,0.9921875-0.6376953,0.5673828-1.6308594
		l-5.6025391-13.8271484c-0.1416016-0.2832031-0.2119141-0.3544922-0.5664062-0.3544922h-14.3945312
		c-0.2841797,0-0.4960938,0.1425781-0.6386719,0.4970703l-3.5449219,9.6435547
		c-0.5673828,1.4882812-0.921875,2.9775391-0.921875,4.0410156c0,1.2060547,1.0634766,1.6308594,2.1269531,1.6308594h0.5673828
		c0.4960938,0,0.6386719,0.2128906,0.6386719,0.4970703c0,0.3544922-0.3544922,0.4960938-0.921875,0.4960938
		c-1.4892578,0-4.8925781-0.2128906-5.6015625-0.2128906c-0.6386719,0-3.7587891,0.2128906-6.3115234,0.2128906
		c-0.7792969,0-1.2050781-0.1416016-1.2050781-0.4960938c0-0.2841797,0.2832031-0.4970703,0.5673828-0.4970703
		c0.4248047,0,1.3466797-0.0703125,1.84375-0.1416016c2.8359375-0.3544922,4.0410156-2.4814453,5.2470703-5.5302734
		L355.1152344,19.7714844z M362.0644531,44.8730469c0.2832031,0,0.2832031-0.1416016,0.2119141-0.4257812l-6.1689453-16.5214844
		c-0.3544922-0.921875-0.7089844-0.921875-1.0634766,0l-5.8144531,16.5214844c-0.0703125,0.2841797,0,0.4257812,0.2128906,0.4257812
		H362.0644531z"/>
	<path class="st0" d="M410.4248047,31.1171875c0-11.0615234,0-13.0478516-0.1416016-15.3164062
		c-0.1425781-2.4111328-0.7089844-3.5449219-3.0498047-4.0419922c-0.5664062-0.1416016-1.7724609-0.2128906-2.4101562-0.2128906
		c-0.2841797,0-0.5673828-0.1416016-0.5673828-0.4248047c0-0.4257812,0.3544922-0.5673828,1.1347656-0.5673828
		c3.1904297,0,7.515625,0.2128906,8.1542969,0.2128906c0.6376953,0,4.8925781-0.2128906,7.0195312-0.2128906
		c0.7802734,0,1.1347656,0.1416016,1.1347656,0.5673828c0,0.2832031-0.2841797,0.4248047-0.5673828,0.4248047
		c-0.4960938,0-0.921875,0.0712891-1.7724609,0.2128906c-1.9150391,0.2841797-2.4824219,1.5605469-2.6240234,4.0419922
		c-0.1416016,2.2685547-0.1416016,4.2548828-0.1416016,15.3164062v9.9267578
		c0,10.2109375,2.2685547,14.6074219,5.3183594,17.5146484c3.4736328,3.2617188,6.6650391,3.8994141,10.7070312,3.8994141
		c4.3251953,0,8.5791016-2.0556641,11.1318359-5.1054688c3.2617188-4.0410156,4.1132812-10.0683594,4.1132812-17.3720703v-8.8632812
		c0-11.0615234,0-13.0478516-0.1425781-15.3164062c-0.1416016-2.4111328-0.7089844-3.5449219-3.0488281-4.0419922
		c-0.5673828-0.1416016-1.7724609-0.2128906-2.4111328-0.2128906c-0.2832031,0-0.5664062-0.1416016-0.5664062-0.4248047
		c0-0.4257812,0.3544922-0.5673828,1.1337891-0.5673828c3.1914062,0,7.0908203,0.2128906,7.5166016,0.2128906
		c0.4960938,0,3.8291016-0.2128906,5.9560547-0.2128906c0.7802734,0,1.1347656,0.1416016,1.1347656,0.5673828
		c0,0.2832031-0.2841797,0.4248047-0.5673828,0.4248047c-0.4960938,0-0.921875,0.0712891-1.7724609,0.2128906
		c-1.9150391,0.4257812-2.4824219,1.5605469-2.6240234,4.0419922c-0.1416016,2.2685547-0.1416016,4.2548828-0.1416016,15.3164062
		v7.5869141c0,7.6582031-0.8505859,16.1669922-6.5234375,21.2011719
		c-5.1054688,4.5380859-10.4238281,5.2470703-14.6074219,5.2470703c-2.4101562,0-9.5722656-0.2832031-14.6064453-5.0341797
		c-3.4746094-3.3330078-6.1689453-8.2958984-6.1689453-18.6484375V31.1171875z"/>
	<path class="st0" d="M472.2568359,55.9345703c0.1416016,4.9638672,0.7089844,6.453125,2.4101562,6.8779297
		c1.1347656,0.2841797,2.5527344,0.3544922,3.1201172,0.3544922c0.2841797,0,0.4970703,0.2128906,0.4970703,0.4970703
		c0,0.3544922-0.4257812,0.4960938-1.1347656,0.4960938c-3.5458984,0-6.0273438-0.2128906-6.5947266-0.2128906
		s-3.1904297,0.2128906-6.0273438,0.2128906c-0.6376953,0-0.9921875-0.0712891-0.9921875-0.4960938
		c0-0.2841797,0.2128906-0.4970703,0.4960938-0.4970703c0.4960938,0,1.6308594-0.0703125,2.5527344-0.3544922
		c1.5595703-0.4248047,1.7724609-2.0556641,1.7724609-7.515625V20.7646484c0-2.4111328,0.3544922-3.0498047,0.8515625-3.0498047
		c0.7089844,0,1.7724609,1.2060547,2.4101562,1.84375c0.9931641,0.9931641,10.0693359,10.6367188,19.7128906,20.5634766
		C497.5,46.5039062,504.1650391,53.6660156,506.0791016,55.6513672l-0.6376953-30.2070312
		c-0.0712891-3.9003906-0.4257812-5.2470703-2.3398438-5.6015625c-1.1347656-0.2128906-2.5527344-0.2841797-3.0488281-0.2841797
		c-0.4257812,0-0.4970703-0.3544922-0.4970703-0.5673828c0-0.3544922,0.4970703-0.4248047,1.2060547-0.4248047
		c2.8359375,0,5.8144531,0.1416016,6.5234375,0.1416016s2.765625-0.1416016,5.3173828-0.1416016
		c0.6386719,0,1.1347656,0.0703125,1.1347656,0.4248047c0,0.2128906-0.2832031,0.5673828-0.7089844,0.5673828
		c-0.2832031,0-0.7802734,0-1.4892578,0.1425781c-2.0556641,0.4248047-2.1982422,1.6308594-2.1982422,5.2470703
		l-0.1416016,35.3115234c0,3.9707031-0.0703125,4.3251953-0.4960938,4.3251953
		c-0.6386719,0-1.2763672-0.4960938-4.7509766-3.6865234c-0.6376953-0.5673828-9.6435547-9.4306641-16.2373047-16.3085938
		c-7.2333984-7.5878906-14.2529297-14.9619141-16.1669922-17.0888672L472.2568359,55.9345703z"/>
	<path class="st0" d="M532.9560547,46.6455078c0,5.8144531,0,10.5654297,0.2832031,13.046875
		c0.2128906,1.7734375,0.4257812,2.9072266,2.2695312,3.1914062c0.921875,0.1416016,2.2685547,0.2832031,2.8359375,0.2832031
		c0.3544922,0,0.4970703,0.2841797,0.4970703,0.4970703c0,0.2832031-0.2841797,0.4960938-0.9931641,0.4960938
		c-3.4746094,0-7.5166016-0.2128906-7.7998047-0.2128906c-0.3544922,0-4.2548828,0.2128906-6.1689453,0.2128906
		c-0.6386719,0-0.9931641-0.1416016-0.9931641-0.4960938c0-0.2128906,0.1425781-0.4970703,0.4970703-0.4970703
		c0.5673828,0,1.3466797-0.1416016,1.9140625-0.2832031c1.2060547-0.2841797,1.4179688-1.4179688,1.6308594-3.1914062
		c0.2841797-2.4814453,0.3544922-7.2324219,0.3544922-13.046875V36.0097656c0-9.3603516,0-11.0615234-0.1416016-12.9765625
		C527,20.9765625,526.5039062,20.0556641,525.15625,19.7714844c-0.7089844-0.1416016-1.4892578-0.2128906-1.9150391-0.2128906
		c-0.2832031,0-0.4960938-0.2832031-0.4960938-0.4960938c0-0.3544922,0.2841797-0.4960938,0.9931641-0.4960938
		c2.0556641,0,5.9560547,0.1416016,6.3105469,0.1416016c0.2832031,0,4.3251953-0.1416016,6.2402344-0.1416016
		c0.7089844,0,0.9921875,0.1416016,0.9921875,0.4960938c0,0.2128906-0.2832031,0.4960938-0.4960938,0.4960938
		c-0.4257812,0-0.8505859,0-1.5605469,0.1425781c-1.7011719,0.3544922-2.0556641,1.2050781-2.1972656,3.3320312
		c-0.0712891,1.9150391-0.0712891,3.6162109-0.0712891,12.9765625V46.6455078z"/>
	<path class="st0" d="M568.5517578,56.2890625c3.6162109-8.0830078,11.7705078-28.6464844,13.1181641-32.9716797
		c0.2832031-0.921875,0.5673828-1.7734375,0.5673828-2.2695312s-0.2128906-1.0634766-0.8505859-1.2763672
		c-0.7089844-0.2128906-1.4189453-0.2128906-2.1279297-0.2128906c-0.3544922,0-0.7089844-0.2128906-0.7089844-0.4960938
		c0-0.3544922,0.4257812-0.4960938,1.4179688-0.4960938c2.4824219,0,5.3183594,0.1416016,6.0986328,0.1416016
		c0.3544922,0,3.0488281-0.1416016,4.8925781-0.1416016c0.6376953,0,0.9921875,0.1416016,0.9921875,0.4248047
		c0,0.2841797-0.2119141,0.5673828-0.7089844,0.5673828c-0.4248047,0-1.84375,0-2.9775391,0.7089844
		c-0.8515625,0.5673828-1.84375,1.4189453-3.4746094,5.53125c-0.7089844,1.7021484-3.7578125,8.9345703-6.9492188,16.3085938
		c-3.8291016,8.7929688-6.5947266,15.3164062-8.0126953,18.2949219c-1.7011719,3.6162109-2.0556641,4.5380859-2.6943359,4.5380859
		c-0.7089844,0-1.1347656-0.7802734-2.3398438-3.6875l-15.3164062-36.9433594
		c-1.4179688-3.4033203-2.2685547-4.0419922-4.3251953-4.5380859c-0.9921875-0.2128906-2.0556641-0.2128906-2.4101562-0.2128906
		c-0.3554688,0-0.4970703-0.3544922-0.4970703-0.5673828c0-0.3544922,0.6386719-0.4248047,1.6308594-0.4248047
		c2.9785156,0,6.5234375,0.1416016,7.3037109,0.1416016c0.6386719,0,3.4033203-0.1416016,5.8144531-0.1416016
		c1.1347656,0,1.7021484,0.1416016,1.7021484,0.4248047c0,0.2841797-0.2128906,0.5673828-0.6386719,0.5673828
		c-0.7089844,0-1.7011719,0.0712891-2.2685547,0.2841797c-0.6386719,0.2832031-0.7089844,0.6376953-0.7089844,1.0634766
		c0,0.7802734,0.7792969,2.6230469,1.7011719,5.0341797L568.5517578,56.2890625z"/>
	<path class="st0" d="M601.1708984,36.0097656c0-9.3603516,0-11.0615234-0.1416016-12.9765625
		c-0.1416016-2.0566406-0.4960938-3.0488281-2.5527344-3.3320312c-0.4960938-0.0712891-1.5595703-0.1425781-2.1269531-0.1425781
		c-0.2128906,0-0.4960938-0.2832031-0.4960938-0.4960938c0-0.3544922,0.2832031-0.4960938,0.9921875-0.4960938
		c2.8359375,0,6.8779297,0.1416016,7.2324219,0.1416016c0.4257812,0,13.4726562,0.0712891,14.890625,0
		c1.2060547-0.0712891,2.3408203-0.2832031,2.8369141-0.3544922c0.2832031-0.0712891,0.5673828-0.2841797,0.8505859-0.2841797
		c0.2128906,0,0.2841797,0.2841797,0.2841797,0.5673828c0,0.4257812-0.3554688,1.1347656-0.4970703,2.8369141
		c-0.0703125,0.5673828-0.2128906,3.2617188-0.3544922,3.9707031c-0.0703125,0.2832031-0.2832031,0.6376953-0.5673828,0.6376953
		c-0.3544922,0-0.4960938-0.2832031-0.4960938-0.7792969c0-0.4257812-0.0712891-1.4189453-0.3544922-2.1279297
		c-0.4257812-0.9921875-1.0634766-1.4179688-4.4667969-1.8427734c-1.0644531-0.1425781-8.296875-0.2128906-9.0058594-0.2128906
		c-0.2832031,0-0.3544922,0.2128906-0.3544922,0.6376953v16.3798828c0,0.4257812,0,0.6376953,0.3544922,0.6376953
		c0.7802734,0,9.0058594,0,10.4238281-0.1416016c1.4892578-0.1416016,2.4111328-0.2128906,3.0488281-0.8505859
		c0.4257812-0.4257812,0.7089844-0.7802734,0.921875-0.7802734s0.3544922,0.1416016,0.3544922,0.4960938
		c0,0.3554688-0.3544922,1.3476562-0.4960938,3.3330078c-0.1416016,1.2050781-0.2841797,3.4746094-0.2841797,3.9003906
		c0,0.4960938-0.1416016,1.1347656-0.5673828,1.1347656c-0.2832031,0-0.4248047-0.2128906-0.4248047-0.5673828
		c0-0.5673828,0-1.2060547-0.2841797-1.9853516c-0.2119141-0.8515625-0.7792969-1.5605469-3.1904297-1.84375
		c-1.7021484-0.2128906-8.3671875-0.2841797-9.4306641-0.2841797c-0.3544922,0-0.4257812,0.2128906-0.4257812,0.4257812v5.0341797
		c0,2.0566406-0.0703125,9.0761719,0,10.2822266c0.1416016,4.0410156,1.2763672,4.8212891,7.4453125,4.8212891
		c1.6308594,0,4.609375,0,6.2402344-0.6376953c1.6308594-0.7089844,2.4814453-1.7734375,2.8359375-4.1835938
		c0.1416016-0.7089844,0.2841797-0.921875,0.6386719-0.921875s0.4248047,0.4960938,0.4248047,0.921875
		c0,0.4248047-0.4960938,4.5380859-0.8505859,5.8144531c-0.4257812,1.5595703-1.0634766,1.5595703-3.4746094,1.5595703
		c-4.6796875,0-8.2958984-0.1416016-10.8486328-0.2128906C606.6308594,63.9472656,605,63.9472656,604.078125,63.9472656
		c-0.1416016,0-1.3466797,0-2.6943359,0.0712891c-1.2050781,0.0703125-2.6240234,0.1416016-3.6162109,0.1416016
		c-0.6386719,0-0.9931641-0.1416016-0.9931641-0.4960938c0-0.2128906,0.1425781-0.4970703,0.4970703-0.4970703
		c0.5673828,0,1.3466797-0.2128906,1.9140625-0.2832031c1.2060547-0.2128906,1.3476562-1.4179688,1.6308594-3.1914062
		c0.3544922-2.4814453,0.3544922-7.2324219,0.3544922-13.046875V36.0097656z"/>
	<path class="st0" d="M640.2412109,36.0097656c0-9.3603516,0-11.0615234-0.1416016-12.9765625
		c-0.1416016-2.0566406-0.4960938-3.0488281-2.5527344-3.3320312c-0.4960938-0.0712891-1.5595703-0.1425781-2.1269531-0.1425781
		c-0.2128906,0-0.4960938-0.2832031-0.4960938-0.4960938c0-0.3544922,0.2832031-0.4960938,0.9921875-0.4960938
		c2.8369141,0,7.0205078,0.1416016,7.375,0.1416016c0.6376953,0,5.8847656-0.1416016,7.7998047-0.1416016
		c3.9707031,0,8.3671875,0.3544922,11.6289062,2.6230469c1.5595703,1.1347656,4.3251953,4.0419922,4.3251953,8.2255859
		c0,4.4667969-1.84375,8.7929688-7.6582031,13.7558594c5.1054688,6.3818359,9.4306641,11.8417969,13.046875,15.6005859
		c3.3330078,3.4033203,5.3886719,3.9707031,6.9492188,4.1826172c1.2050781,0.2128906,1.84375,0.2128906,2.1982422,0.2128906
		s0.5673828,0.2841797,0.5673828,0.4970703c0,0.3544922-0.3544922,0.4960938-1.4892578,0.4960938h-3.9003906
		c-3.5449219,0-5.1054688-0.3544922-6.6650391-1.2060547c-2.6943359-1.4179688-4.9638672-4.3251953-8.5087891-8.8632812
		c-2.6240234-3.2617188-5.3886719-7.1611328-6.7363281-8.7919922c-0.2832031-0.2841797-0.4257812-0.3544922-0.8505859-0.3544922
		l-7.9423828-0.1425781c-0.2832031,0-0.4248047,0.1425781-0.4248047,0.4970703v1.4179688
		c0,5.8144531,0,10.4941406,0.2832031,12.9755859c0.2128906,1.7734375,0.5673828,2.9072266,2.4824219,3.1914062
		c0.8505859,0.1416016,2.1972656,0.2832031,2.7646484,0.2832031c0.4257812,0,0.4970703,0.2841797,0.4970703,0.4970703
		c0,0.2832031-0.2841797,0.4960938-0.9931641,0.4960938c-3.4033203,0-7.3740234-0.2128906-7.6582031-0.2128906
		c-0.0703125,0-4.2539062,0.2128906-6.1689453,0.2128906c-0.6376953,0-0.9921875-0.1416016-0.9921875-0.4960938
		c0-0.2128906,0.1416016-0.4970703,0.4960938-0.4970703c0.5673828,0,1.3476562-0.1416016,1.9140625-0.2832031
		c1.2060547-0.2841797,1.3476562-1.4179688,1.6308594-3.1914062c0.3544922-2.4814453,0.3544922-7.2324219,0.3544922-13.046875
		V36.0097656z M645.6308594,41.1152344c0,0.3544922,0.1416016,0.5664062,0.4248047,0.7792969
		c0.921875,0.4970703,4.1132812,0.921875,6.8789062,0.921875c1.4882812,0,3.1904297-0.0703125,4.6796875-1.0634766
		c2.1269531-1.4179688,3.7578125-4.609375,3.7578125-9.2177734c0-7.5166016-4.1123047-11.8417969-10.7783203-11.8417969
		c-1.8427734,0-3.828125,0.2128906-4.4667969,0.3544922c-0.2832031,0.1416016-0.4960938,0.3544922-0.4960938,0.7089844V41.1152344z"
		/>
	<path class="st0" d="M682.0087891,63.3095703c-0.8505859-0.4257812-0.921875-0.6386719-0.921875-2.2695312
		c0-2.9785156,0.2841797-5.3886719,0.3544922-6.3818359c0-0.6376953,0.1425781-0.9921875,0.4970703-0.9921875
		s0.5673828,0.2119141,0.5673828,0.7089844c0,0.4960938,0,1.3466797,0.2119141,2.1982422
		c0.9931641,4.3955078,5.6728516,5.9560547,9.8564453,5.9560547c6.1689453,0,9.3603516-3.4746094,9.3603516-8.0126953
		c0-4.3251953-2.3408203-6.3818359-7.8710938-10.4941406l-2.8359375-2.1279297
		c-6.7363281-5.0341797-8.9345703-8.7216797-8.9345703-12.9052734c0-7.0908203,5.6015625-11.3447266,13.8271484-11.3447266
		c2.4814453,0,4.9628906,0.3544922,6.4521484,0.7089844c1.2050781,0.2832031,1.7021484,0.2832031,2.1982422,0.2832031
		s0.6376953,0.0712891,0.6376953,0.4257812c0,0.2832031-0.2832031,2.2695312-0.2832031,6.3818359
		c0,0.921875-0.0712891,1.3466797-0.4960938,1.3466797c-0.4257812,0-0.4970703-0.2832031-0.5673828-0.7792969
		c-0.0712891-0.7089844-0.5673828-2.3398438-0.921875-2.9785156c-0.4257812-0.7089844-2.4814453-2.9775391-8.0839844-2.9775391
		c-4.5380859,0-8.2958984,2.2685547-8.2958984,6.5234375c0,3.8291016,1.9150391,6.0263672,8.0839844,10.2099609l1.7724609,1.2060547
		c7.5869141,5.1757812,10.2109375,9.359375,10.2109375,14.5361328c0,3.5449219-1.3476562,7.3740234-5.8144531,10.28125
		c-2.6240234,1.7021484-6.5234375,2.1279297-9.9277344,2.1279297
		C688.1777344,64.9404297,684.5615234,64.5146484,682.0087891,63.3095703z"/>
	<path class="st0" d="M728.6669922,46.6455078c0,5.8144531,0,10.5654297,0.2841797,13.046875
		c0.2119141,1.7734375,0.4248047,2.9072266,2.2685547,3.1914062c0.921875,0.1416016,2.2695312,0.2832031,2.8369141,0.2832031
		c0.3544922,0,0.4960938,0.2841797,0.4960938,0.4970703c0,0.2832031-0.2841797,0.4960938-0.9931641,0.4960938
		c-3.4746094,0-7.515625-0.2128906-7.7998047-0.2128906c-0.3544922,0-4.2539062,0.2128906-6.1689453,0.2128906
		c-0.6376953,0-0.9921875-0.1416016-0.9921875-0.4960938c0-0.2128906,0.1416016-0.4970703,0.4960938-0.4970703
		c0.5673828,0,1.3476562-0.1416016,1.9140625-0.2832031c1.2060547-0.2841797,1.4189453-1.4179688,1.6308594-3.1914062
		c0.2841797-2.4814453,0.3544922-7.2324219,0.3544922-13.046875V36.0097656c0-9.3603516,0-11.0615234-0.1416016-12.9765625
		c-0.1416016-2.0566406-0.6376953-2.9775391-1.9853516-3.2617188c-0.7089844-0.1416016-1.4892578-0.2128906-1.9140625-0.2128906
		c-0.2841797,0-0.4970703-0.2832031-0.4970703-0.4960938c0-0.3544922,0.2841797-0.4960938,0.9931641-0.4960938
		c2.0566406,0,5.9560547,0.1416016,6.3105469,0.1416016c0.2841797,0,4.3251953-0.1416016,6.2402344-0.1416016
		c0.7089844,0,0.9921875,0.1416016,0.9921875,0.4960938c0,0.2128906-0.2832031,0.4960938-0.4960938,0.4960938
		c-0.4257812,0-0.8505859,0-1.5595703,0.1425781c-1.7021484,0.3544922-2.0566406,1.2050781-2.1982422,3.3320312
		c-0.0712891,1.9150391-0.0712891,3.6162109-0.0712891,12.9765625V46.6455078z"/>
	<path class="st0" d="M764.1914062,46.6455078c0,5.8144531,0,10.5654297,0.2841797,13.046875
		c0.2128906,1.7734375,0.4960938,2.9072266,2.4111328,3.1914062c0.8505859,0.1416016,2.2685547,0.2832031,2.8359375,0.2832031
		c0.4257812,0,0.4960938,0.2841797,0.4960938,0.4970703c0,0.2832031-0.2832031,0.4960938-0.9921875,0.4960938
		c-3.4042969,0-7.375-0.2128906-7.7294922-0.2128906c-0.2832031,0-4.6083984,0.2128906-6.4521484,0.2128906
		c-0.7089844,0-0.9931641-0.1416016-0.9931641-0.4960938c0-0.2128906,0.1425781-0.4257812,0.4970703-0.4257812
		c0.5664062,0,1.2763672-0.1416016,1.8427734-0.2841797c1.2763672-0.2832031,1.6308594-1.4882812,1.84375-3.2617188
		c0.2841797-2.4814453,0.2841797-7.2324219,0.2841797-13.046875V21.3320312l-9.0058594,0.1416016
		c-3.8994141,0.0703125-5.3886719,0.4960938-6.3105469,1.9140625c-0.7089844,1.0634766-0.7802734,1.4892578-0.9921875,1.9150391
		c-0.1425781,0.4960938-0.3544922,0.5673828-0.6386719,0.5673828c-0.1416016,0-0.4257812-0.1425781-0.4257812-0.4970703
		c0-0.6376953,1.2060547-6.0273438,1.3476562-6.5234375c0.0712891-0.3544922,0.4257812-1.1347656,0.6376953-1.1347656
		c0.4257812,0,1.0644531,0.4970703,2.765625,0.7099609c1.7724609,0.2119141,4.1835938,0.2832031,4.8925781,0.2832031h23.5419922
		c2.0556641,0,3.4736328-0.1416016,4.4667969-0.2832031c0.921875-0.1425781,1.4892578-0.2841797,1.7724609-0.2841797
		c0.2841797,0,0.2841797,0.3544922,0.2841797,0.7089844c0,1.84375-0.2128906,6.1689453-0.2128906,6.8779297
		c0,0.4970703-0.2841797,0.7802734-0.5673828,0.7802734s-0.4257812-0.2128906-0.4960938-1.0634766l-0.0712891-0.6386719
		c-0.2128906-1.8427734-1.5595703-3.1904297-7.5166016-3.3320312l-7.7998047-0.1416016V46.6455078z"/>
	<path class="st0" d="M802.3398438,48.4892578c0-3.2617188-0.4248047-4.4667969-1.3466797-6.1689453
		c-0.4960938-0.921875-8.9345703-14.3232422-11.0615234-17.5146484c-1.4892578-2.2685547-2.9785156-3.6162109-4.1132812-4.3955078
		c-0.921875-0.5673828-2.1269531-0.8515625-2.6230469-0.8515625c-0.3544922,0-0.6386719-0.2832031-0.6386719-0.5673828
		c0-0.2832031,0.2128906-0.4248047,0.7802734-0.4248047c1.2050781,0,5.8857422,0.1416016,6.1689453,0.1416016
		c0.4257812,0,2.9785156-0.1416016,5.3886719-0.1416016c0.7099609,0,0.8515625,0.1416016,0.8515625,0.4248047
		c0,0.2128906-0.4257812,0.4257812-0.9931641,0.6386719c-0.4960938,0.2128906-0.7802734,0.4960938-0.7802734,0.9921875
		c0,0.8515625,0.4257812,1.5605469,0.8515625,2.3408203l11.3447266,18.7900391
		c1.2763672-2.5527344,9.0761719-15.4580078,10.2109375-17.4433594c0.7802734-1.3466797,1.0634766-2.3398438,1.0634766-3.1201172
		c0-0.8505859-0.2832031-1.3466797-0.9921875-1.5595703c-0.5673828-0.1416016-0.921875-0.4257812-0.921875-0.7089844
		c0-0.2128906,0.3544922-0.3544922,0.9921875-0.3544922c1.6308594,0,3.8291016,0.1416016,4.3251953,0.1416016
		c0.4257812,0,4.8925781-0.1416016,6.0986328-0.1416016c0.4248047,0,0.7802734,0.1416016,0.7802734,0.3544922
		c0,0.2832031-0.2841797,0.6376953-0.7802734,0.6376953c-0.7089844,0-1.9150391,0.2128906-2.9072266,0.7802734
		c-1.2050781,0.7089844-1.7724609,1.3476562-3.1201172,2.9785156c-2.0566406,2.4101562-10.8486328,16.5917969-12.125,19.1445312
		c-1.0634766,2.1279297-0.7802734,4.0419922-0.7802734,6.0273438v5.1767578c0,0.9921875,0,3.5449219,0.2128906,6.0263672
		c0.1416016,1.7734375,0.5673828,2.9072266,2.4111328,3.1914062c0.8505859,0.1416016,2.2685547,0.2832031,2.8359375,0.2832031
		c0.3544922,0,0.4960938,0.2841797,0.4960938,0.4970703c0,0.2832031-0.3544922,0.4960938-0.9921875,0.4960938
		c-3.4746094,0-7.5166016-0.2128906-7.8710938-0.2128906c-0.2832031,0-4.2539062,0.2128906-6.0976562,0.2128906
		c-0.7089844,0-0.9931641-0.1416016-0.9931641-0.4960938c0-0.2128906,0.1416016-0.4970703,0.4960938-0.4970703
		c0.5673828,0,1.2763672-0.1416016,1.84375-0.2832031c1.2763672-0.2841797,1.7021484-1.4179688,1.84375-3.1914062
		c0.1416016-2.4814453,0.1416016-5.0341797,0.1416016-6.0263672V48.4892578z"/>
	<path class="st0" d="M866.7255859,43.7382812c0,10.4238281,0.2832031,14.9619141,1.5595703,16.2382812
		c1.1347656,1.1347656,2.9785156,1.6308594,8.5087891,1.6308594c3.7578125,0,6.8779297-0.0712891,8.5800781-2.1269531
		c0.921875-1.1347656,1.6308594-2.9072266,1.84375-4.2548828c0.0703125-0.5673828,0.2128906-0.921875,0.6376953-0.921875
		c0.3544922,0,0.4257812,0.2841797,0.4257812,1.0634766c0,0.7802734-0.4960938,5.0351562-1.0634766,7.0908203
		c-0.4960938,1.6308594-0.7089844,1.9150391-4.4677734,1.9150391c-5.1044922,0-8.7919922-0.1425781-11.7705078-0.2128906
		c-2.9775391-0.1416016-5.1757812-0.2128906-7.2324219-0.2128906c-0.2832031,0-1.4892578,0.0712891-2.9072266,0.0712891
		c-1.4179688,0.0703125-2.9785156,0.1416016-4.0419922,0.1416016c-0.7792969,0-1.1337891-0.1416016-1.1337891-0.5673828
		c0-0.2128906,0.1416016-0.4257812,0.5664062-0.4257812c0.6386719,0,1.4892578-0.1416016,2.1279297-0.2832031
		c1.4179688-0.2841797,1.7724609-1.84375,2.0556641-3.9003906c0.3544922-2.9775391,0.3544922-8.5791016,0.3544922-15.3867188
		V31.1171875c0-11.0615234,0-13.0478516-0.1416016-15.3164062c-0.1416016-2.4111328-0.7089844-3.5449219-3.0488281-4.0419922
		c-0.5673828-0.1416016-1.7724609-0.2128906-2.4111328-0.2128906c-0.2832031,0-0.5673828-0.1416016-0.5673828-0.4248047
		c0-0.4257812,0.3544922-0.5673828,1.1347656-0.5673828c3.1914062,0,7.6582031,0.2128906,8.0126953,0.2128906
		s5.53125-0.2128906,7.6582031-0.2128906c0.7802734,0,1.1347656,0.1416016,1.1347656,0.5673828
		c0,0.2832031-0.2841797,0.4248047-0.5673828,0.4248047c-0.4970703,0-1.4892578,0.0712891-2.3398438,0.2128906
		c-2.0566406,0.3544922-2.6240234,1.5605469-2.765625,4.0419922c-0.1416016,2.2685547-0.1416016,4.2548828-0.1416016,15.3164062
		V43.7382812z"/>
	<path class="st0" d="M906.7890625,46.6455078c0,5.8144531,0,10.5654297,0.2841797,13.046875
		c0.2119141,1.7734375,0.4248047,2.9072266,2.2685547,3.1914062c0.921875,0.1416016,2.2695312,0.2832031,2.8369141,0.2832031
		c0.3544922,0,0.4960938,0.2841797,0.4960938,0.4970703c0,0.2832031-0.2841797,0.4960938-0.9931641,0.4960938
		c-3.4746094,0-7.515625-0.2128906-7.7998047-0.2128906c-0.3544922,0-4.2539062,0.2128906-6.1689453,0.2128906
		c-0.6376953,0-0.9921875-0.1416016-0.9921875-0.4960938c0-0.2128906,0.1416016-0.4970703,0.4960938-0.4970703
		c0.5673828,0,1.3476562-0.1416016,1.9140625-0.2832031c1.2060547-0.2841797,1.4189453-1.4179688,1.6308594-3.1914062
		c0.2841797-2.4814453,0.3544922-7.2324219,0.3544922-13.046875V36.0097656c0-9.3603516,0-11.0615234-0.1416016-12.9765625
		c-0.1416016-2.0566406-0.6376953-2.9775391-1.9853516-3.2617188c-0.7089844-0.1416016-1.4892578-0.2128906-1.9140625-0.2128906
		c-0.2841797,0-0.4970703-0.2832031-0.4970703-0.4960938c0-0.3544922,0.2841797-0.4960938,0.9931641-0.4960938
		c2.0566406,0,5.9560547,0.1416016,6.3105469,0.1416016c0.2841797,0,4.3251953-0.1416016,6.2402344-0.1416016
		c0.7089844,0,0.9921875,0.1416016,0.9921875,0.4960938c0,0.2128906-0.2832031,0.4960938-0.4960938,0.4960938
		c-0.4257812,0-0.8505859,0-1.5595703,0.1425781c-1.7021484,0.3544922-2.0566406,1.2050781-2.1982422,3.3320312
		c-0.0712891,1.9150391-0.0712891,3.6162109-0.0712891,12.9765625V46.6455078z"/>
	<path class="st0" d="M927.2822266,36.0097656c0-9.3603516,0-11.0615234-0.1416016-12.9765625
		c-0.1416016-2.0566406-0.4960938-3.1904297-2.5527344-3.4746094c-0.4960938-0.0703125-1.5595703-0.1416016-2.1269531-0.1416016
		c-0.2128906,0-0.4960938-0.1416016-0.4960938-0.3544922c0-0.3544922,0.2832031-0.4960938,0.9921875-0.4960938
		c2.8369141,0,6.8779297,0.1416016,7.2324219,0.1416016c1.4892578,0,4.3964844-0.1416016,7.3037109-0.1416016
		c10.4238281,0,13.1181641,6.0273438,13.1181641,9.2177734c0,4.7509766-3.1201172,7.7285156-6.3105469,10.5654297
		c4.7509766,1.4179688,10.9902344,5.7431641,10.9902344,12.5507812c0,6.7363281-5.0341797,13.4013672-15.6708984,13.4013672
		c-1.1337891,0-3.4033203-0.0712891-5.3886719-0.2128906c-1.9853516-0.0703125-3.7578125-0.1416016-4.0419922-0.1416016
		c-0.1416016,0-1.2763672,0.0712891-2.5517578,0.0712891c-1.2763672,0.0703125-2.765625,0.1416016-3.7587891,0.1416016
		c-0.6376953,0-0.9921875-0.1416016-0.9921875-0.4960938c0-0.2128906,0.1416016-0.3544922,0.4960938-0.3544922
		c0.5673828,0,1.3476562-0.2128906,1.9140625-0.2841797c1.2060547-0.2128906,1.3476562-1.5595703,1.6308594-3.3330078
		c0.3544922-2.4814453,0.3544922-7.2324219,0.3544922-13.046875V36.0097656z M932.671875,37.2861328
		c0,0.4248047,0.1416016,0.5673828,0.4248047,0.6376953c0.3544922,0.0712891,1.4892578,0.2841797,3.8291016,0.2841797
		c3.4746094,0,4.8222656-0.1425781,6.0986328-1.5605469c1.3466797-1.4892578,2.4101562-3.5449219,2.4101562-6.4521484
		c0-4.609375-2.5517578-9.7148438-8.7919922-9.7148438c-0.7089844,0-2.1982422,0.0712891-3.1914062,0.2841797
		c-0.5664062,0.1416016-0.7792969,0.2832031-0.7792969,0.6376953V37.2861328z M932.671875,43.9511719
		c0,4.6796875,0,11.9130859,0.0703125,12.8339844c0.2128906,2.9072266,0.2128906,3.6171875,2.1279297,4.5380859
		c1.7011719,0.7802734,4.3251953,0.8515625,5.4599609,0.8515625c4.1123047,0,9.1464844-1.5605469,9.1464844-9.2890625
		c0-2.6943359-1.0634766-7.8710938-5.9560547-10.9912109c-2.1269531-1.3466797-4.1123047-1.2763672-5.6015625-1.5595703
		c-0.7802734-0.1416016-3.9003906-0.1416016-4.8925781-0.1416016c-0.2128906,0-0.3544922,0.1416016-0.3544922,0.4248047V43.9511719z
		"/>
	<path class="st0" d="M968.6933594,36.0097656c0-9.3603516,0-11.0615234-0.1416016-12.9765625
		c-0.1416016-2.0566406-0.4960938-3.0488281-2.5527344-3.3320312c-0.4960938-0.0712891-1.5595703-0.1425781-2.1269531-0.1425781
		c-0.2128906,0-0.4960938-0.2832031-0.4960938-0.4960938c0-0.3544922,0.2832031-0.4960938,0.9921875-0.4960938
		c2.8369141,0,7.0205078,0.1416016,7.375,0.1416016c0.6376953,0,5.8847656-0.1416016,7.7998047-0.1416016
		c3.9707031,0,8.3671875,0.3544922,11.6289062,2.6230469c1.5595703,1.1347656,4.3251953,4.0419922,4.3251953,8.2255859
		c0,4.4667969-1.84375,8.7929688-7.6582031,13.7558594c5.1054688,6.3818359,9.4306641,11.8417969,13.046875,15.6005859
		c3.3330078,3.4033203,5.3886719,3.9707031,6.9492188,4.1826172c1.2050781,0.2128906,1.84375,0.2128906,2.1982422,0.2128906
		s0.5673828,0.2841797,0.5673828,0.4970703c0,0.3544922-0.3544922,0.4960938-1.4892578,0.4960938h-3.9003906
		c-3.5449219,0-5.1054688-0.3544922-6.6650391-1.2060547c-2.6943359-1.4179688-4.9638672-4.3251953-8.5087891-8.8632812
		c-2.6240234-3.2617188-5.3886719-7.1611328-6.7363281-8.7919922c-0.2832031-0.2841797-0.4257812-0.3544922-0.8505859-0.3544922
		l-7.9423828-0.1425781c-0.2832031,0-0.4248047,0.1425781-0.4248047,0.4970703v1.4179688
		c0,5.8144531,0,10.4941406,0.2832031,12.9755859c0.2128906,1.7734375,0.5673828,2.9072266,2.4824219,3.1914062
		c0.8505859,0.1416016,2.1972656,0.2832031,2.7646484,0.2832031c0.4257812,0,0.4970703,0.2841797,0.4970703,0.4970703
		c0,0.2832031-0.2841797,0.4960938-0.9931641,0.4960938c-3.4033203,0-7.3740234-0.2128906-7.6582031-0.2128906
		c-0.0703125,0-4.2539062,0.2128906-6.1689453,0.2128906c-0.6376953,0-0.9921875-0.1416016-0.9921875-0.4960938
		c0-0.2128906,0.1416016-0.4970703,0.4960938-0.4970703c0.5673828,0,1.3476562-0.1416016,1.9140625-0.2832031
		c1.2060547-0.2841797,1.3476562-1.4179688,1.6308594-3.1914062c0.3544922-2.4814453,0.3544922-7.2324219,0.3544922-13.046875
		V36.0097656z M974.0830078,41.1152344c0,0.3544922,0.1416016,0.5664062,0.4248047,0.7792969
		c0.921875,0.4970703,4.1132812,0.921875,6.8789062,0.921875c1.4882812,0,3.1904297-0.0703125,4.6796875-1.0634766
		c2.1269531-1.4179688,3.7578125-4.609375,3.7578125-9.2177734c0-7.5166016-4.1123047-11.8417969-10.7783203-11.8417969
		c-1.8427734,0-3.828125,0.2128906-4.4667969,0.3544922c-0.2832031,0.1416016-0.4960938,0.3544922-0.4960938,0.7089844V41.1152344z"
		/>
	<path class="st0" d="M1026.2001953,19.7714844c0.7802734-1.9853516,1.0634766-2.3398438,1.4892578-2.3398438
		c0.6376953,0,0.8505859,0.8505859,1.4892578,2.1982422c1.1337891,2.5527344,11.1318359,27.4414062,14.9609375,36.5888672
		c2.2695312,5.3886719,3.9707031,6.1689453,5.3183594,6.59375c0.921875,0.2841797,1.84375,0.3544922,2.4814453,0.3544922
		c0.3544922,0,0.7802734,0.1425781,0.7802734,0.4970703s-0.7089844,0.4960938-1.4179688,0.4960938
		c-0.921875,0-5.53125,0-9.8564453-0.1416016c-1.2050781-0.0712891-2.1982422-0.0712891-2.1982422-0.4257812
		c0-0.2832031,0.1416016-0.2832031,0.4257812-0.4257812c0.3544922-0.1416016,0.9921875-0.6376953,0.5673828-1.6308594
		l-5.6015625-13.8271484c-0.1425781-0.2832031-0.2128906-0.3544922-0.5673828-0.3544922h-14.3945312
		c-0.2832031,0-0.4960938,0.1425781-0.6376953,0.4970703l-3.5458984,9.6435547
		c-0.5673828,1.4882812-0.921875,2.9775391-0.921875,4.0410156c0,1.2060547,1.0634766,1.6308594,2.1269531,1.6308594h0.5673828
		c0.4970703,0,0.6386719,0.2128906,0.6386719,0.4970703c0,0.3544922-0.3544922,0.4960938-0.921875,0.4960938
		c-1.4892578,0-4.8925781-0.2128906-5.6015625-0.2128906c-0.6386719,0-3.7587891,0.2128906-6.3105469,0.2128906
		c-0.7802734,0-1.2060547-0.1416016-1.2060547-0.4960938c0-0.2841797,0.2841797-0.4970703,0.5673828-0.4970703
		c0.4257812,0,1.3476562-0.0703125,1.84375-0.1416016c2.8359375-0.3544922,4.0419922-2.4814453,5.2470703-5.5302734
		L1026.2001953,19.7714844z M1033.1494141,44.8730469c0.2832031,0,0.2832031-0.1416016,0.2128906-0.4257812l-6.1689453-16.5214844
		c-0.3544922-0.921875-0.7089844-0.921875-1.0634766,0l-5.8144531,16.5214844c-0.0712891,0.2841797,0,0.4257812,0.2119141,0.4257812
		H1033.1494141z"/>
	<path class="st0" d="M1060.9462891,36.0097656c0-9.3603516,0-11.0615234-0.1416016-12.9765625
		c-0.1416016-2.0566406-0.4960938-3.0488281-2.5527344-3.3320312c-0.4960938-0.0712891-1.5595703-0.1425781-2.1269531-0.1425781
		c-0.2128906,0-0.4960938-0.2832031-0.4960938-0.4960938c0-0.3544922,0.2832031-0.4960938,0.9921875-0.4960938
		c2.8369141,0,7.0205078,0.1416016,7.375,0.1416016c0.6376953,0,5.8847656-0.1416016,7.7998047-0.1416016
		c3.9707031,0,8.3671875,0.3544922,11.6289062,2.6230469c1.5595703,1.1347656,4.3251953,4.0419922,4.3251953,8.2255859
		c0,4.4667969-1.84375,8.7929688-7.6582031,13.7558594c5.1054688,6.3818359,9.4306641,11.8417969,13.046875,15.6005859
		c3.3330078,3.4033203,5.3886719,3.9707031,6.9492188,4.1826172c1.2050781,0.2128906,1.84375,0.2128906,2.1982422,0.2128906
		s0.5673828,0.2841797,0.5673828,0.4970703c0,0.3544922-0.3544922,0.4960938-1.4892578,0.4960938h-3.9003906
		c-3.5449219,0-5.1054688-0.3544922-6.6650391-1.2060547c-2.6943359-1.4179688-4.9638672-4.3251953-8.5087891-8.8632812
		c-2.6240234-3.2617188-5.3886719-7.1611328-6.7363281-8.7919922c-0.2832031-0.2841797-0.4257812-0.3544922-0.8505859-0.3544922
		l-7.9423828-0.1425781c-0.2832031,0-0.4248047,0.1425781-0.4248047,0.4970703v1.4179688
		c0,5.8144531,0,10.4941406,0.2832031,12.9755859c0.2128906,1.7734375,0.5673828,2.9072266,2.4824219,3.1914062
		c0.8505859,0.1416016,2.1972656,0.2832031,2.7646484,0.2832031c0.4257812,0,0.4970703,0.2841797,0.4970703,0.4970703
		c0,0.2832031-0.2841797,0.4960938-0.9931641,0.4960938c-3.4033203,0-7.3740234-0.2128906-7.6582031-0.2128906
		c-0.0703125,0-4.2539062,0.2128906-6.1689453,0.2128906c-0.6376953,0-0.9921875-0.1416016-0.9921875-0.4960938
		c0-0.2128906,0.1416016-0.4970703,0.4960938-0.4970703c0.5673828,0,1.3476562-0.1416016,1.9140625-0.2832031
		c1.2060547-0.2841797,1.3476562-1.4179688,1.6308594-3.1914062c0.3544922-2.4814453,0.3544922-7.2324219,0.3544922-13.046875
		V36.0097656z M1066.3359375,41.1152344c0,0.3544922,0.1416016,0.5664062,0.4248047,0.7792969
		c0.921875,0.4970703,4.1132812,0.921875,6.8789062,0.921875c1.4882812,0,3.1904297-0.0703125,4.6796875-1.0634766
		c2.1269531-1.4179688,3.7578125-4.609375,3.7578125-9.2177734c0-7.5166016-4.1123047-11.8417969-10.7783203-11.8417969
		c-1.8427734,0-3.828125,0.2128906-4.4667969,0.3544922c-0.2832031,0.1416016-0.4960938,0.3544922-0.4960938,0.7089844V41.1152344z"
		/>
	<path class="st0" d="M1114.2695312,46.6455078c0,5.8144531,0,10.5654297,0.2841797,13.046875
		c0.2119141,1.7734375,0.4248047,2.9072266,2.2685547,3.1914062c0.921875,0.1416016,2.2695312,0.2832031,2.8369141,0.2832031
		c0.3544922,0,0.4960938,0.2841797,0.4960938,0.4970703c0,0.2832031-0.2841797,0.4960938-0.9931641,0.4960938
		c-3.4746094,0-7.515625-0.2128906-7.7998047-0.2128906c-0.3544922,0-4.2539062,0.2128906-6.1689453,0.2128906
		c-0.6376953,0-0.9921875-0.1416016-0.9921875-0.4960938c0-0.2128906,0.1416016-0.4970703,0.4960938-0.4970703
		c0.5673828,0,1.3476562-0.1416016,1.9140625-0.2832031c1.2060547-0.2841797,1.4189453-1.4179688,1.6308594-3.1914062
		c0.2841797-2.4814453,0.3544922-7.2324219,0.3544922-13.046875V36.0097656c0-9.3603516,0-11.0615234-0.1416016-12.9765625
		c-0.1416016-2.0566406-0.6376953-2.9775391-1.9853516-3.2617188c-0.7089844-0.1416016-1.4892578-0.2128906-1.9140625-0.2128906
		c-0.2841797,0-0.4970703-0.2832031-0.4970703-0.4960938c0-0.3544922,0.2841797-0.4960938,0.9931641-0.4960938
		c2.0566406,0,5.9560547,0.1416016,6.3105469,0.1416016c0.2841797,0,4.3251953-0.1416016,6.2402344-0.1416016
		c0.7089844,0,0.9921875,0.1416016,0.9921875,0.4960938c0,0.2128906-0.2832031,0.4960938-0.4960938,0.4960938
		c-0.4257812,0-0.8505859,0-1.5595703,0.1425781c-1.7021484,0.3544922-2.0566406,1.2050781-2.1982422,3.3320312
		c-0.0712891,1.9150391-0.0712891,3.6162109-0.0712891,12.9765625V46.6455078z"/>
	<path class="st0" d="M1134.7626953,36.0097656c0-9.3603516,0-11.0615234-0.1416016-12.9765625
		c-0.1416016-2.0566406-0.4960938-3.0488281-2.5527344-3.3320312c-0.4960938-0.0712891-1.5595703-0.1425781-2.1269531-0.1425781
		c-0.2128906,0-0.4960938-0.2832031-0.4960938-0.4960938c0-0.3544922,0.2832031-0.4960938,0.9921875-0.4960938
		c2.8369141,0,6.8779297,0.1416016,7.2324219,0.1416016c0.4257812,0,13.4726562,0.0712891,14.890625,0
		c1.2060547-0.0712891,2.3408203-0.2832031,2.8369141-0.3544922c0.2832031-0.0712891,0.5673828-0.2841797,0.8505859-0.2841797
		c0.2128906,0,0.2841797,0.2841797,0.2841797,0.5673828c0,0.4257812-0.3554688,1.1347656-0.4970703,2.8369141
		c-0.0703125,0.5673828-0.2128906,3.2617188-0.3544922,3.9707031c-0.0703125,0.2832031-0.2832031,0.6376953-0.5673828,0.6376953
		c-0.3544922,0-0.4960938-0.2832031-0.4960938-0.7792969c0-0.4257812-0.0712891-1.4189453-0.3544922-2.1279297
		c-0.4257812-0.9921875-1.0634766-1.4179688-4.4667969-1.8427734c-1.0644531-0.1425781-8.296875-0.2128906-9.0058594-0.2128906
		c-0.2832031,0-0.3544922,0.2128906-0.3544922,0.6376953v16.3798828c0,0.4257812,0,0.6376953,0.3544922,0.6376953
		c0.7802734,0,9.0058594,0,10.4238281-0.1416016c1.4892578-0.1416016,2.4111328-0.2128906,3.0488281-0.8505859
		c0.4257812-0.4257812,0.7089844-0.7802734,0.921875-0.7802734s0.3544922,0.1416016,0.3544922,0.4960938
		c0,0.3554688-0.3544922,1.3476562-0.4960938,3.3330078c-0.1416016,1.2050781-0.2841797,3.4746094-0.2841797,3.9003906
		c0,0.4960938-0.1416016,1.1347656-0.5673828,1.1347656c-0.2832031,0-0.4248047-0.2128906-0.4248047-0.5673828
		c0-0.5673828,0-1.2060547-0.2841797-1.9853516c-0.2119141-0.8515625-0.7792969-1.5605469-3.1904297-1.84375
		c-1.7021484-0.2128906-8.3671875-0.2841797-9.4306641-0.2841797c-0.3544922,0-0.4257812,0.2128906-0.4257812,0.4257812v5.0341797
		c0,2.0566406-0.0703125,9.0761719,0,10.2822266c0.1416016,4.0410156,1.2763672,4.8212891,7.4453125,4.8212891
		c1.6308594,0,4.609375,0,6.2402344-0.6376953c1.6308594-0.7089844,2.4814453-1.7734375,2.8359375-4.1835938
		c0.1416016-0.7089844,0.2841797-0.921875,0.6386719-0.921875s0.4248047,0.4960938,0.4248047,0.921875
		c0,0.4248047-0.4960938,4.5380859-0.8505859,5.8144531c-0.4257812,1.5595703-1.0634766,1.5595703-3.4746094,1.5595703
		c-4.6796875,0-8.2958984-0.1416016-10.8486328-0.2128906c-2.6240234-0.1416016-4.2548828-0.1416016-5.1767578-0.1416016
		c-0.1416016,0-1.3466797,0-2.6943359,0.0712891c-1.2050781,0.0703125-2.6230469,0.1416016-3.6162109,0.1416016
		c-0.6376953,0-0.9921875-0.1416016-0.9921875-0.4960938c0-0.2128906,0.1416016-0.4970703,0.4960938-0.4970703
		c0.5673828,0,1.3476562-0.2128906,1.9140625-0.2832031c1.2060547-0.2128906,1.3476562-1.4179688,1.6308594-3.1914062
		c0.3544922-2.4814453,0.3544922-7.2324219,0.3544922-13.046875V36.0097656z"/>
	<path class="st0" d="M1168.5869141,63.3095703c-0.8505859-0.4257812-0.921875-0.6386719-0.921875-2.2695312
		c0-2.9785156,0.2841797-5.3886719,0.3544922-6.3818359c0-0.6376953,0.1425781-0.9921875,0.4970703-0.9921875
		s0.5673828,0.2119141,0.5673828,0.7089844c0,0.4960938,0,1.3466797,0.2119141,2.1982422
		c0.9931641,4.3955078,5.6728516,5.9560547,9.8564453,5.9560547c6.1689453,0,9.3603516-3.4746094,9.3603516-8.0126953
		c0-4.3251953-2.3408203-6.3818359-7.8710938-10.4941406l-2.8359375-2.1279297
		c-6.7363281-5.0341797-8.9345703-8.7216797-8.9345703-12.9052734c0-7.0908203,5.6015625-11.3447266,13.8271484-11.3447266
		c2.4814453,0,4.9628906,0.3544922,6.4521484,0.7089844c1.2050781,0.2832031,1.7021484,0.2832031,2.1982422,0.2832031
		s0.6376953,0.0712891,0.6376953,0.4257812c0,0.2832031-0.2832031,2.2695312-0.2832031,6.3818359
		c0,0.921875-0.0712891,1.3466797-0.4960938,1.3466797c-0.4257812,0-0.4970703-0.2832031-0.5673828-0.7792969
		c-0.0712891-0.7089844-0.5673828-2.3398438-0.921875-2.9785156c-0.4257812-0.7089844-2.4814453-2.9775391-8.0839844-2.9775391
		c-4.5380859,0-8.2958984,2.2685547-8.2958984,6.5234375c0,3.8291016,1.9150391,6.0263672,8.0839844,10.2099609l1.7724609,1.2060547
		c7.5869141,5.1757812,10.2109375,9.359375,10.2109375,14.5361328c0,3.5449219-1.3476562,7.3740234-5.8144531,10.28125
		c-2.6240234,1.7021484-6.5234375,2.1279297-9.9277344,2.1279297
		C1174.7558594,64.9404297,1171.1396484,64.5146484,1168.5869141,63.3095703z"/>
</g>
<g>
</g>
<g>
</g>
<g>
</g>
<g>
</g>
<g>
</g>
<g>
</g>
<g>
</g>
<g>
</g>
<g>
</g>
<g>
</g>
<g>
</g>
<g>
</g>
<g>
</g>
<g>
</g>
<g>
</g>
</svg>
